<svg id="visual" viewBox="0 0 900 675" width="900" height="675" xmlns="http://www.w3.org/2000/svg" xmlns:xlink="http://www.w3.org/1999/xlink" version="1.1"><path d="M428 0L427.2 22.5C426.3 45 424.7 90 432.8 135C441 180 459 225 462.3 270C465.7 315 454.3 360 444.3 405C434.3 450 425.7 495 428.3 540C431 585 445 630 452 652.5L459 675L0 675L0 652.5C0 630 0 585 0 540C0 495 0 450 0 405C0 360 0 315 0 270C0 225 0 180 0 135C0 90 0 45 0 22.5L0 0Z" fill="#0066FF" stroke-linecap="round" stroke-linejoin="miter"></path></svg>